<?xml version="1.0" encoding="UTF-8" standalone="no"?>
<!-- Created with Inkscape (http://www.inkscape.org/) -->

<svg
   xmlns:dc="http://purl.org/dc/elements/1.1/"
   xmlns:cc="http://creativecommons.org/ns#"
   xmlns:rdf="http://www.w3.org/1999/02/22-rdf-syntax-ns#"
   xmlns:svg="http://www.w3.org/2000/svg"
   xmlns="http://www.w3.org/2000/svg"
   xmlns:xlink="http://www.w3.org/1999/xlink"
   xmlns:sodipodi="http://sodipodi.sourceforge.net/DTD/sodipodi-0.dtd"
   xmlns:inkscape="http://www.inkscape.org/namespaces/inkscape"
   width="400"
   height="400"
   id="svg2"
   version="1.1"
   inkscape:version="0.48.1 r9760"
   sodipodi:docname="New document 1">
  <defs
     id="defs4" />
  <sodipodi:namedview
     id="base"
     pagecolor="#fffff0"
     bordercolor="#666666"
     borderopacity="1.0"
     inkscape:pageopacity="1"
     inkscape:pageshadow="2"
     inkscape:zoom="1.4142136"
     inkscape:cx="200"
     inkscape:cy="175.14719"
     inkscape:document-units="px"
     inkscape:current-layer="layer1"
     showgrid="false"
     inkscape:window-width="939"
     inkscape:window-height="908"
     inkscape:window-x="28"
     inkscape:window-y="57"
     inkscape:window-maximized="0" />
  <metadata
     id="metadata7">
    <rdf:RDF>
      <cc:Work
         rdf:about="">
        <dc:format>image/svg+xml</dc:format>
        <dc:type
           rdf:resource="http://purl.org/dc/dcmitype/StillImage" />
        <dc:title></dc:title>
      </cc:Work>
    </rdf:RDF>
  </metadata>
  <g
     inkscape:label="Layer 1"
     inkscape:groupmode="layer"
     id="layer1"
     transform="translate(0,-652.36218)">
    <path
       style="color:#000000;fill:#ffdead;fill-opacity:1;fill-rule:nonzero;stroke:#000000;stroke-width:1px;stroke-linecap:butt;stroke-linejoin:miter;stroke-miterlimit:4;stroke-opacity:1;stroke-dasharray:none;stroke-dashoffset:0;marker:none;visibility:visible;display:inline;overflow:visible;enable-background:accumulate"
       d="m 251.02291,251.50758 -1.41422,28.99137 14.14214,32.52692 -28.99138,7.77817 -28.28427,-4.94975 -1.41421,-42.4264"
       id="path3001"
       inkscape:connector-curvature="0"
       transform="translate(0,652.36218)" />
    <path
       inkscape:connector-curvature="0"
       id="path3014"
       d="m 164.75588,896.79869 -1.41422,28.99137 14.14214,32.52692 -28.99138,7.77817 -28.28427,-4.94975 -1.41421,-42.4264"
       style="color:#000000;fill:#ffdead;fill-opacity:1;fill-rule:nonzero;stroke:#000000;stroke-width:1px;stroke-linecap:butt;stroke-linejoin:miter;stroke-miterlimit:4;stroke-opacity:1;stroke-dasharray:none;stroke-dashoffset:0;marker:none;visibility:visible;display:inline;overflow:visible;enable-background:accumulate" />
    <path
       style="color:#000000;fill:#ffefd5;fill-opacity:1;fill-rule:nonzero;stroke:#000000;stroke-width:1px;stroke-linecap:butt;stroke-linejoin:miter;stroke-miterlimit:4;stroke-opacity:1;stroke-dasharray:none;stroke-dashoffset:0;marker:none;visibility:visible;display:inline;overflow:visible;enable-background:accumulate"
       d="m -4.9497475,221.80909 c 18.1490745,-0.52873 36.2981485,-7.48534 54.4472225,-21.2132 8.720984,-5.7871 14.61354,-12.88735 21.92031,-24.74874 6.719879,-9.61989 16.503937,-19.62281 38.183765,-31.1127 32.21615,-10.76724 53.03271,-10.1349 74.24621,-9.89949 19.12923,7.50513 38.92278,14.34593 54.44723,25.45584 l 19.79899,59.39697 -0.70711,27.57717 c -7.86098,12.78526 -23.72441,22.5696 -46.66905,29.69848 -24.36585,1.98134 -48.22786,4.08864 -79.90307,4.24264 L 91.216775,267.06393 48.083261,256.45732 c -10.741032,-8.79537 -33.506417,-3.16151 -53.0330085,-1.41421 z"
       id="path2987"
       inkscape:connector-curvature="0"
       transform="translate(0,652.36218)"
       sodipodi:nodetypes="cccccccccccccc" />
    <path
       style="color:#000000;fill:#f4a460;fill-opacity:1;fill-rule:nonzero;stroke:#000000;stroke-width:1px;stroke-linecap:butt;stroke-linejoin:miter;stroke-miterlimit:4;stroke-opacity:1;stroke-dasharray:none;stroke-dashoffset:0;marker:none;visibility:visible;display:inline;overflow:visible;enable-background:accumulate"
       d="m 271.529,250.09336 25.45585,26.87006 3.53553,-21.92031"
       id="path3018"
       inkscape:connector-curvature="0"
       transform="translate(0,652.36218)" />
    <path
       style="color:#000000;fill:#ffdead;fill-opacity:1;fill-rule:nonzero;stroke:#ffdead;stroke-width:1px;stroke-linecap:butt;stroke-linejoin:miter;stroke-miterlimit:4;stroke-opacity:1;stroke-dasharray:none;stroke-dashoffset:0;marker:none;visibility:visible;display:inline;overflow:visible;enable-background:accumulate"
       d="m 176.06959,154.63395 0.70711,24.04163 c 8.18374,17.52426 12.55396,39.81543 27.57716,48.79037 9.44624,14.8311 28.01165,20.54302 46.66905,26.16295 l 15.55635,-12.72793"
       id="path3020"
       inkscape:connector-curvature="0"
       transform="translate(0,652.36218)"
       sodipodi:nodetypes="ccccc" />
    <path
       style="color:#000000;fill:#ffefd5;fill-opacity:1;fill-rule:nonzero;stroke:#000000;stroke-width:1px;stroke-linecap:butt;stroke-linejoin:miter;stroke-miterlimit:4;stroke-opacity:1;stroke-dasharray:none;stroke-dashoffset:0;marker:none;visibility:visible;display:inline;overflow:visible;enable-background:accumulate"
       d="m 197.28279,188.57507 c -0.16758,-10.49383 -7.72196,-17.65044 -16.97056,-24.04163 -9.39026,-10.40873 -18.24591,-21.35207 -18.38478,-41.01219 -0.55855,-18.67534 9.28417,-27.98954 27.57717,-29.698486 33.9838,-11.356382 52.71177,-7.456932 70.00357,-2.121321 24.09629,-4.416857 26.38319,4.251923 32.52691,10.606607 l 0,41.7193 -1.41421,33.94112 c 3.94834,13.11078 12.26044,24.03967 19.79899,35.35534 l 13.43503,31.8198 c 2.17513,10.3709 -5.13453,20.7418 -14.14214,31.1127 -4.42621,-6.96867 -1.70481,-14.58712 -25.45584,-19.79899 l -23.33453,-4.94974 c -14.3337,-9.85252 -28.65278,-19.31505 -46.66905,-34.64824 -6.1266,-8.48859 -12.63917,-16.20525 -16.97056,-28.28427 z"
       id="path2989"
       inkscape:connector-curvature="0"
       transform="translate(0,652.36218)"
       sodipodi:nodetypes="ccccccccccccccc" />
    <use
       x="0"
       y="0"
       xlink:href="#path2991"
       id="use2993"
       transform="translate(41.7193,-4.2426404)"
       width="400"
       height="400" />
    <path
       style="color:#000000;fill:#ffefd5;fill-opacity:1;fill-rule:nonzero;stroke:#000000;stroke-width:1px;stroke-linecap:butt;stroke-linejoin:miter;stroke-miterlimit:4;stroke-opacity:1;stroke-dasharray:none;stroke-dashoffset:0;marker:none;visibility:visible;display:inline;overflow:visible;enable-background:accumulate"
       d="m 223.44574,148.26999 c 12.54989,-3.58725 24.8495,-5.17286 50.20458,0.7071 19.9109,7.07107 18.84364,4.24264 31.81981,10.6066 23.32732,0.78087 10.79954,1.10712 52.32591,-4.24263 -19.1689,8.68248 -28.62095,17.62718 -57.98276,21.2132 -11.30896,-2.28004 -22.75464,-4.5145 -39.59798,-4.94975 -14.8606,1.87994 -10.52983,-0.0795 -21.92032,3.53553"
       id="path2991"
       inkscape:connector-curvature="0"
       transform="translate(0,652.36218)"
       sodipodi:nodetypes="ccccccc" />
    <path
       style="color:#000000;fill:#ffefd5;fill-opacity:1;fill-rule:nonzero;stroke:#000000;stroke-width:1px;stroke-linecap:butt;stroke-linejoin:miter;stroke-miterlimit:4;stroke-opacity:1;stroke-dasharray:none;stroke-dashoffset:0;marker:none;visibility:visible;display:inline;overflow:visible;enable-background:accumulate"
       d="m 301.9346,223.2233 c 19.59058,-4.81142 27.40925,-18.45178 40.30508,-28.28427 -6.08134,17.27217 -12.28204,34.4966 -27.57716,48.08326"
       id="path2995"
       inkscape:connector-curvature="0"
       transform="translate(0,652.36218)"
       sodipodi:nodetypes="ccc" />
    <path
       style="color:#000000;fill:#ffefd5;fill-opacity:1;fill-rule:nonzero;stroke:#000000;stroke-width:1px;stroke-linecap:butt;stroke-linejoin:miter;stroke-miterlimit:4;stroke-opacity:1;stroke-dasharray:none;stroke-dashoffset:0;marker:none;visibility:visible;display:inline;overflow:visible;enable-background:accumulate"
       d="m 222.73864,247.97204 c 0.74269,11.25233 1.39706,22.54 -7.07107,37.47666 5.21106,18.48724 6.9788,23.20114 8.48528,26.87006 l 10.6066,16.97056 c -10.55107,15.2861 -35.46231,9.03193 -56.56854,8.48528 -6.22912,-8.67941 -12.77587,-16.65831 -14.14214,-36.06244 4.34464,-10.8423 8.54242,-21.68461 9.19239,-32.52691"
       id="path2997"
       inkscape:connector-curvature="0"
       transform="translate(0,652.36218)"
       sodipodi:nodetypes="ccccccc" />
    <path
       style="color:#000000;fill:#ffefd5;fill-opacity:1;fill-rule:nonzero;stroke:#000000;stroke-width:1px;stroke-linecap:butt;stroke-linejoin:miter;stroke-miterlimit:4;stroke-opacity:1;stroke-dasharray:none;stroke-dashoffset:0;marker:none;visibility:visible;display:inline;overflow:visible;enable-background:accumulate"
       d="m 57.275649,221.80909 c -3.836114,14.18055 -8.917943,28.48775 3.535534,41.01219 12.540319,18.95478 19.086998,10.93818 28.284271,14.84925 2.090895,9.18022 -0.441059,16.5113 -7.778174,21.92031 -3.237018,2.16858 -5.257517,0.68761 -12.020815,13.43503 12.498573,6.09232 15.934023,15.42146 53.033005,12.72792 10.28854,-2.86137 12.44856,-8.97415 13.43503,-15.55635 1.07295,-5.39513 0.48382,-11.12267 -7.77817,-18.38478 2.10907,-6.68537 4.63206,-10.47336 4.94974,-29.69848 -1.68112,-6.7516 -3.52404,-13.47623 -16.26345,-18.38478"
       id="path2999"
       inkscape:connector-curvature="0"
       transform="translate(0,652.36218)"
       sodipodi:nodetypes="cccccccccc" />
    <path
       style="color:#000000;fill:#ffd700;fill-opacity:1;fill-rule:nonzero;stroke:#000000;stroke-width:1px;stroke-linecap:butt;stroke-linejoin:miter;stroke-miterlimit:4;stroke-opacity:1;stroke-dasharray:none;stroke-dashoffset:0;marker:none;visibility:visible;display:inline;overflow:visible;enable-background:accumulate"
       d="m 239.00209,185.74665 c 11.62049,2.59272 10.4607,5.18545 13.43503,7.77817 l -1.41421,9.19239 c -5.51002,-1.56105 -9.80695,-4.33519 -13.43503,-7.77818 z"
       id="path3016"
       inkscape:connector-curvature="0"
       transform="translate(0,652.36218)"
       sodipodi:nodetypes="ccccc" />
  </g>
</svg>
