<?xml version="1.0" encoding="UTF-8" standalone="no"?>
<!-- Created with Inkscape (http://www.inkscape.org/) -->

<svg
   xmlns:dc="http://purl.org/dc/elements/1.1/"
   xmlns:cc="http://creativecommons.org/ns#"
   xmlns:rdf="http://www.w3.org/1999/02/22-rdf-syntax-ns#"
   xmlns:svg="http://www.w3.org/2000/svg"
   xmlns="http://www.w3.org/2000/svg"
   xmlns:xlink="http://www.w3.org/1999/xlink"
   xmlns:sodipodi="http://sodipodi.sourceforge.net/DTD/sodipodi-0.dtd"
   xmlns:inkscape="http://www.inkscape.org/namespaces/inkscape"
   width="400"
   height="400"
   id="svg2"
   version="1.1"
   inkscape:version="0.48.1 r9760"
   sodipodi:docname="Blastosaurus.svg"
   inkscape:export-filename="/home/peter/projects/pyweek15/AllAboutMonstrs/AllAboutMonstrs/data/tessellated_chromographs/Blastosaurus.png"
   inkscape:export-xdpi="90"
   inkscape:export-ydpi="90">
  <defs
     id="defs4" />
  <sodipodi:namedview
     id="base"
     pagecolor="#ffffff"
     bordercolor="#666666"
     borderopacity="1.0"
     inkscape:pageopacity="0.0"
     inkscape:pageshadow="2"
     inkscape:zoom="2.0172792"
     inkscape:cx="189.75672"
     inkscape:cy="210.44675"
     inkscape:document-units="px"
     inkscape:current-layer="layer1"
     showgrid="false"
     inkscape:window-width="919"
     inkscape:window-height="891"
     inkscape:window-x="72"
     inkscape:window-y="43"
     inkscape:window-maximized="0" />
  <metadata
     id="metadata7">
    <rdf:RDF>
      <cc:Work
         rdf:about="">
        <dc:format>image/svg+xml</dc:format>
        <dc:type
           rdf:resource="http://purl.org/dc/dcmitype/StillImage" />
        <dc:title></dc:title>
      </cc:Work>
    </rdf:RDF>
  </metadata>
  <g
     inkscape:label="Layer 1"
     inkscape:groupmode="layer"
     id="layer1"
     transform="translate(0,-652.36218)">
    <path
       style="color:#000000;fill:#b22222;fill-opacity:1;fill-rule:nonzero;stroke:#000000;stroke-width:1px;stroke-linecap:butt;stroke-linejoin:miter;stroke-miterlimit:4;stroke-opacity:1;stroke-dasharray:none;stroke-dashoffset:0;marker:none;visibility:visible;display:inline;overflow:visible;enable-background:accumulate"
       d="m 286.81178,191.5493 c 11.02698,18.72503 19.95936,37.86899 37.38796,55.3137 4.62247,8.79363 17.02693,8.24886 28.16902,9.21895 10.7495,-6.9363 10.06809,-15.30146 10.24328,-23.55954 l -3.58515,-20.48656 z"
       id="path2991"
       inkscape:connector-curvature="0"
       transform="translate(0,652.36218)"
       sodipodi:nodetypes="cccccc" />
    <path
       style="color:#000000;fill:#ff0000;fill-opacity:1;fill-rule:nonzero;stroke:#ff0000;stroke-width:1px;stroke-linecap:butt;stroke-linejoin:miter;stroke-miterlimit:4;stroke-opacity:1;stroke-dasharray:none;stroke-dashoffset:0;marker:none;visibility:visible;display:inline;overflow:visible;enable-background:accumulate"
       d="m 290.90909,844.9358 35.85147,42.50961 c 5.12164,8.53606 11.60905,11.60905 19.46223,9.21895 9.81456,4.19213 9.68906,-5.81582 10.24328,-14.85276 l -3.07298,-17.92573 z"
       id="path2989"
       inkscape:connector-curvature="0"
       sodipodi:nodetypes="cccccc" />
    <path
       inkscape:connector-curvature="0"
       id="path3019"
       d="m 329.85737,890.67345 4.68864,-13.1386 -9.46824,10.15966"
       style="color:#000000;fill:#ffffff;fill-opacity:1;fill-rule:nonzero;stroke:#000000;stroke-width:1.13033807px;stroke-linecap:butt;stroke-linejoin:miter;stroke-miterlimit:4;stroke-opacity:1;stroke-dasharray:none;stroke-dashoffset:0;marker:none;visibility:visible;display:inline;overflow:visible;enable-background:accumulate"
       sodipodi:nodetypes="ccc" />
    <path
       style="color:#000000;fill:#8b0000;fill-opacity:1;fill-rule:nonzero;stroke:#000000;stroke-width:1px;stroke-linecap:butt;stroke-linejoin:miter;stroke-miterlimit:4;stroke-opacity:1;stroke-dasharray:none;stroke-dashoffset:0;marker:none;visibility:visible;display:inline;overflow:visible;enable-background:accumulate"
       d="m 191.03714,767.59906 24.0717,36.8758 -11.77977,42.5096 -33.80282,34.31498 -18.95006,30.21767 36.8758,0 15.36492,9.73111 c -5.76751,-2.3387 -11.90875,-6.91986 -16.38925,-1.53649 l -12.8041,-1.02432 c 6.17222,4.21553 12.08274,8.95446 16.90141,15.87708 l 0,15.87708 c -1.64324,-4.11864 -2.62686,-8.45715 -8.19462,-11.26761 -1.20003,-5.75811 -7.81774,-7.45296 -14.34059,-9.21895 l 10.24328,14.34059 -1.53649,9.21895 c -6.54144,-10.11797 -11.68568,-14.64713 -16.90141,-19.46223 l -32.26633,-16.38924 -5.12164,2.56082 20.48656,-39.94879 z"
       id="path3003"
       inkscape:connector-curvature="0"
       sodipodi:nodetypes="cccccccccccccccccccc" />
    <path
       style="color:#000000;fill:#b22222;fill-opacity:1;fill-rule:nonzero;stroke:#000000;stroke-width:1px;stroke-linecap:butt;stroke-linejoin:miter;stroke-miterlimit:4;stroke-opacity:1;stroke-dasharray:none;stroke-dashoffset:0;marker:none;visibility:visible;display:inline;overflow:visible;enable-background:accumulate"
       d="m 255.05762,161.84379 -27.14469,-4.09731 -3.58515,16.38924 2.56082,13.31626 9.73112,8.19463 c 5.16645,5.58436 0.53508,9.53576 -2.04866,13.82842 -0.96461,-3.90439 1.97249,-8.58912 -5.12164,-11.2676 l -6.65813,-2.56082 -8.70678,6.65813 -0.51217,11.77977 c -5.93708,-4.48817 -10.07504,-9.69598 -9.21895,-16.90141 2.53031,-3.13401 3.41907,-9.55112 9.73112,-5.12164 l -1.53649,-22.02305 -3.58515,-17.92573 -58.38669,-20.48656 61.45967,-15.36492 z"
       id="path2997"
       inkscape:connector-curvature="0"
       transform="translate(0,652.36218)"
       sodipodi:nodetypes="ccccccccccccccccc" />
    <path
       style="color:#000000;fill:#8b0000;fill-opacity:1;fill-rule:nonzero;stroke:#000000;stroke-width:1px;stroke-linecap:butt;stroke-linejoin:miter;stroke-miterlimit:4;stroke-opacity:1;stroke-dasharray:none;stroke-dashoffset:0;marker:none;visibility:visible;display:inline;overflow:visible;enable-background:accumulate"
       d="m 238.15621,147.5032 4.09731,24.58387 c -5.63356,6.52145 -3.43995,9.91204 -2.56082,13.82842 l 6.65813,5.63381 -1.02433,-10.75545 11.26761,-1.53649 c 3.033,5.70917 2.41528,10.50566 0,14.85276 5.2745,-3.83487 9.17923,-8.49161 7.68246,-16.38925 l -13.31626,-11.2676 -3.07299,-20.48656"
       id="path3005"
       inkscape:connector-curvature="0"
       transform="translate(0,652.36218)"
       sodipodi:nodetypes="cccccccccc" />
    <path
       style="color:#000000;fill:#ffffff;fill-opacity:1;fill-rule:nonzero;stroke:#000000;stroke-width:1px;stroke-linecap:butt;stroke-linejoin:miter;stroke-miterlimit:4;stroke-opacity:1;stroke-dasharray:none;stroke-dashoffset:0;marker:none;visibility:visible;display:inline;overflow:visible;enable-background:accumulate"
       d="m 327.27272,857.22774 -2.56082,25.60819 10.24328,-22.02305"
       id="path3007"
       inkscape:connector-curvature="0" />
    <use
       x="0"
       y="0"
       xlink:href="#path3007"
       id="use3009"
       transform="translate(30.21767,4.609475)"
       width="400"
       height="400" />
    <use
       x="0"
       y="0"
       xlink:href="#use3009"
       id="use3011"
       transform="translate(-16.389245,-2.5608195)"
       width="400"
       height="400" />
    <use
       x="0"
       y="0"
       xlink:href="#use3011"
       id="use3013"
       transform="translate(8.1946223,3.5851472)"
       width="400"
       height="400" />
    <use
       x="0"
       y="0"
       xlink:href="#use3013"
       id="use3015"
       transform="translate(-30.21767,-15.877081)"
       width="400"
       height="400" />
    <path
       style="color:#000000;fill:#b22222;fill-opacity:1;fill-rule:nonzero;stroke:#000000;stroke-width:1px;stroke-linecap:butt;stroke-linejoin:miter;stroke-miterlimit:4;stroke-opacity:1;stroke-dasharray:none;stroke-dashoffset:0;marker:none;visibility:visible;display:inline;overflow:visible;enable-background:accumulate"
       d="m 212.66268,143.71421 -45.11027,43.1274 -28.25588,-66.92183 z"
       id="path3027"
       inkscape:connector-curvature="0"
       transform="translate(0,652.36218)" />
    <path
       style="color:#000000;fill:#b22222;fill-opacity:1;fill-rule:nonzero;stroke:#000000;stroke-width:1px;stroke-linecap:butt;stroke-linejoin:miter;stroke-miterlimit:4;stroke-opacity:1;stroke-dasharray:none;stroke-dashoffset:0;marker:none;visibility:visible;display:inline;overflow:visible;enable-background:accumulate"
       d="m 255.05762,162.35595 31.242,28.68118 38.41229,24.58387 c 16.21852,10.54509 32.43705,8.56231 48.65557,7.17029 8.21523,-8.52919 9.06383,-19.51393 9.21895,-30.72983 -3.8075,-14.51131 -8.88906,-29.02262 -19.46223,-43.53393 -9.8767,-13.07275 -15.93403,-28.05518 -33.29065,-37.38797 l -7.1703,-15.877076 C 319.71957,90.26712 311.37982,92.826253 301.66453,97.31114 286.33449,85.22389 275.3549,72.049027 249.93598,62.483995 216.15706,49.681612 179.2832,47.711528 142.89373,44.046095 98.453356,40.049837 86.295049,45.464379 62.996159,47.631242 43.508757,52.586095 20.027598,52.74844 6.6581306,65.044814 l -9.731114,3.585148 0.5121639,100.384118 38.9244555,-5.12163 c 12.228952,1.59947 21.401357,6.25549 28.169014,13.31626 l 8.706787,22.02304 c 3.263238,9.51039 17.329483,14.96965 31.241993,20.48656 -1.59564,16.23881 -11.038413,31.05087 -27.656846,44.55826 l -19.462228,36.8758 -10.755442,9.21895 16.901409,-1.53649 4.097311,-8.19463 32.778486,13.31627 15.36492,8.70678 3.07298,13.82843 4.60948,-17.41358 -15.36492,-14.85275 27.14469,9.21895 c 6.53878,1.74468 6.942,8.50232 6.65813,14.34059 l 2.56082,-17.92574 c -8.0239,-11.83713 -16.04781,-8.9554 -24.07171,-12.29193 7.99545,0.83227 18.89708,-3.97221 22.02306,0.51217 6.48745,-2.27636 6.87559,9.5394 9.73111,13.31626 l -2.04866,-22.02305 c -9.86083,-2.4721 -19.7378,-4.91193 -32.26632,-2.04866 l -15.36492,-5.12164 49.16773,-48.1434 c 6.04788,-10.1122 11.62911,-12.29152 18.95007,-44.0461 5.77966,-15.91354 -3.485,-28.06601 -7.68246,-41.48527 l -12.8041,-17.41357"
       id="path2985"
       inkscape:connector-curvature="0"
       transform="translate(0,652.36218)"
       sodipodi:nodetypes="cccccccccccccccccccccccccccccccccccccccccc" />
    <path
       style="color:#000000;fill:#b22222;fill-opacity:1;fill-rule:nonzero;stroke:#000000;stroke-width:1px;stroke-linecap:butt;stroke-linejoin:miter;stroke-miterlimit:4;stroke-opacity:1;stroke-dasharray:none;stroke-dashoffset:0;marker:none;visibility:visible;display:inline;overflow:visible;enable-background:accumulate"
       d="m 280.15365,134.6991 c 3.82465,-6.52057 8.99076,-10.3582 16.90141,-8.70678 l 6.65813,20.99872"
       id="path2993"
       inkscape:connector-curvature="0"
       transform="translate(0,652.36218)"
       sodipodi:nodetypes="ccc" />
    <path
       style="color:#000000;fill:#7fffd4;fill-opacity:1;fill-rule:nonzero;stroke:#000000;stroke-width:1px;stroke-linecap:butt;stroke-linejoin:miter;stroke-miterlimit:4;stroke-opacity:1;stroke-dasharray:none;stroke-dashoffset:0;marker:none;visibility:visible;display:inline;overflow:visible;enable-background:accumulate"
       d="m 286.29962,137.77209 10.75544,1.02432 1.53649,12.29194 -8.70679,-3.58515 z"
       id="path2995"
       inkscape:connector-curvature="0"
       transform="translate(0,652.36218)" />
    <use
       x="0"
       y="0"
       xlink:href="#path3019"
       id="use3021"
       transform="matrix(0.90009112,-0.4357017,0.4357017,0.90009112,-327.9644,236.98663)"
       width="400"
       height="400" />
    <use
       x="0"
       y="0"
       xlink:href="#use3021"
       id="use3023"
       transform="matrix(0.95392247,-0.30005321,0.30005321,0.95392247,-264.82536,149.19808)"
       width="400"
       height="400" />
  </g>
</svg>
