<?xml version="1.0" encoding="UTF-8" standalone="no"?>
<!-- Created with Inkscape (http://www.inkscape.org/) -->

<svg
   xmlns:dc="http://purl.org/dc/elements/1.1/"
   xmlns:cc="http://creativecommons.org/ns#"
   xmlns:rdf="http://www.w3.org/1999/02/22-rdf-syntax-ns#"
   xmlns:svg="http://www.w3.org/2000/svg"
   xmlns="http://www.w3.org/2000/svg"
   xmlns:xlink="http://www.w3.org/1999/xlink"
   xmlns:sodipodi="http://sodipodi.sourceforge.net/DTD/sodipodi-0.dtd"
   xmlns:inkscape="http://www.inkscape.org/namespaces/inkscape"
   width="744.09448819"
   height="1052.3622047"
   id="svg2"
   version="1.1"
   inkscape:version="0.48.2 r9819"
   sodipodi:docname="encyclopaedia-stuff.svg">
  <defs
     id="defs4">
    <inkscape:perspective
       sodipodi:type="inkscape:persp3d"
       inkscape:vp_x="35.517311 : 532.6309 : 1"
       inkscape:vp_y="0 : 816.30795 : 0"
       inkscape:vp_z="741.59465 : 532.6309 : 1"
       inkscape:persp3d-origin="388.55598 : 389.45562 : 1"
       id="perspective5396" />
    <inkscape:perspective
       sodipodi:type="inkscape:persp3d"
       inkscape:vp_x="77.445872 : 524.76688 : 1"
       inkscape:vp_y="0 : 1000 : 0"
       inkscape:vp_z="720.97469 : 524.76688 : 1"
       inkscape:persp3d-origin="399.21028 : 349.37318 : 1"
       id="perspective3863" />
    <linearGradient
       id="linearGradient3853">
      <stop
         style="stop-color:#858585;stop-opacity:1;"
         offset="0"
         id="stop3855" />
      <stop
         style="stop-color:#b8b8b8;stop-opacity:1;"
         offset="1"
         id="stop3857" />
    </linearGradient>
    <linearGradient
       inkscape:collect="always"
       xlink:href="#linearGradient3853"
       id="linearGradient3859"
       x1="551.58063"
       y1="483.29034"
       x2="534.1087"
       y2="453.59186"
       gradientUnits="userSpaceOnUse"
       gradientTransform="translate(-4.9497475,12.727922)" />
    <linearGradient
       inkscape:collect="always"
       xlink:href="#linearGradient3853"
       id="linearGradient5366"
       gradientUnits="userSpaceOnUse"
       gradientTransform="translate(-4.9497475,12.727922)"
       x1="551.58063"
       y1="483.29034"
       x2="534.1087"
       y2="453.59186" />
  </defs>
  <sodipodi:namedview
     id="base"
     pagecolor="#ffffff"
     bordercolor="#666666"
     borderopacity="1.0"
     inkscape:pageopacity="0.0"
     inkscape:pageshadow="2"
     inkscape:zoom="0.70710678"
     inkscape:cx="612.74731"
     inkscape:cy="600.96843"
     inkscape:document-units="px"
     inkscape:current-layer="layer1"
     showgrid="false"
     inkscape:window-width="1600"
     inkscape:window-height="846"
     inkscape:window-x="0"
     inkscape:window-y="0"
     inkscape:window-maximized="1" />
  <metadata
     id="metadata7">
    <rdf:RDF>
      <cc:Work
         rdf:about="">
        <dc:format>image/svg+xml</dc:format>
        <dc:type
           rdf:resource="http://purl.org/dc/dcmitype/StillImage" />
        <dc:title></dc:title>
      </cc:Work>
    </rdf:RDF>
  </metadata>
  <g
     inkscape:label="Layer 1"
     inkscape:groupmode="layer"
     id="layer1">
    <g
       id="g3773">
      <path
         sodipodi:nodetypes="ccccc"
         inkscape:connector-curvature="0"
         id="path3765"
         d="m 94,28.86218 0,36.5 20.5,0 0,-38 c -5.71491,-1.73684 -9.78654,-6.76026 -20.5,1.5 z"
         style="fill:#ef9d52;fill-opacity:1;stroke:#000000;stroke-width:1px;stroke-linecap:butt;stroke-linejoin:miter;stroke-opacity:1" />
      <path
         sodipodi:nodetypes="cccccc"
         inkscape:connector-curvature="0"
         id="path3763"
         d="m 76.57211,51.47723 40.30509,-10.60661 31.81981,7.77818 0,94.0452 -70.00358,0 c -0.215,-0.12 -2.34857,-90.67141 -2.12132,-91.21677 z"
         style="fill:#cecdc6;fill-opacity:1;stroke:#000000;stroke-width:1px;stroke-linecap:butt;stroke-linejoin:miter;stroke-opacity:1" />
      <path
         inkscape:connector-curvature="0"
         id="path3761"
         d="M 46.166522,294.01485 338.90873,238.86052 450.6316,304.62145 c 0,2.82843 -1.41421,16.97057 -1.41421,16.97057 L 187.56547,391.70144 C 185.50828,393.75863 44.810122,309.2816 44.810122,309.2816 z"
         style="fill:#183e6a;fill-opacity:1;stroke:#000000;stroke-width:1px;stroke-linecap:butt;stroke-linejoin:miter;stroke-opacity:1" />
      <path
         inkscape:connector-curvature="0"
         id="path3757"
         d="m 54.04571,146.12852 86.87312,-79.80205 232.33509,15.15229 c 0,0 67.68022,55.55839 70.71067,63.63961 3.03046,8.08122 0,160.61425 0,160.61425 L 186.52595,374.7131 53.44547,297.87904 z"
         style="fill:#d0cec2;fill-opacity:1;stroke:#000000;stroke-width:1px;stroke-linecap:butt;stroke-linejoin:miter;stroke-opacity:1" />
      <path
         sodipodi:nodetypes="cccccc"
         inkscape:connector-curvature="0"
         id="path3759"
         d="m 185.14286,372.79075 0,-220.71428 -45.09042,-87.47344 -84.76294,80.47722 0,152.7105 z"
         style="fill:#000000;fill-opacity:0.22907487;stroke:none" />
      <path
         sodipodi:nodetypes="cccccccc"
         inkscape:connector-curvature="0"
         id="path2985"
         d="m 48.994949,143.09806 90.913731,-87.88327 240.4163,21.2132 73.74114,74.75129 -264.65997,9.09138 -49.49747,-90.91373 -83.84266,79.80205 z"
         style="fill:#183e6a;fill-opacity:1;stroke:#000000;stroke-width:1px;stroke-linecap:butt;stroke-linejoin:miter;stroke-opacity:1" />
      <path
         inkscape:connector-curvature="0"
         id="path3755"
         d="m 143.94929,58.24525 49.49747,93.94419 249.50768,-6.06092 -63.63961,-65.65992 z"
         style="fill:#ffffff;fill-opacity:0.26431717;stroke:none" />
      <path
         inkscape:connector-curvature="0"
         id="path3767"
         d="m 349.5,329.86218 0,-121 58,-5 0,111 z"
         style="fill:#1c562a;fill-opacity:1;stroke:#000000;stroke-width:1px;stroke-linecap:butt;stroke-linejoin:miter;stroke-opacity:1" />
      <path
         transform="translate(-50,-286)"
         d="m 455,549.36218 a 6,6 0 1 1 -12,0 6,6 0 1 1 12,0 z"
         sodipodi:ry="6"
         sodipodi:rx="6"
         sodipodi:cy="549.36218"
         sodipodi:cx="449"
         id="path3769"
         style="fill:#324035;fill-opacity:1;stroke:none"
         sodipodi:type="arc" />
      <path
         inkscape:connector-curvature="0"
         id="path3771"
         d="m 210.5,191.86218 0,71.5 88,-16 0,-57 z"
         style="fill:#111512;fill-opacity:1;stroke:#000000;stroke-width:1px;stroke-linecap:butt;stroke-linejoin:miter;stroke-opacity:1" />
    </g>
    <g
       id="g3825"
       transform="translate(-24.041631,-52.325902)">
      <path
         d="m 345,588.86218 c 0,32.86095 -38.0558,59.5 -85,59.5 -46.9442,0 -85,-26.63905 -85,-59.5 0,-32.86094 38.0558,-59.5 85,-59.5 46.9442,0 85,26.63906 85,59.5 z"
         sodipodi:ry="59.5"
         sodipodi:rx="85"
         sodipodi:cy="588.86218"
         sodipodi:cx="260"
         id="path3804"
         style="fill:#00b12f;fill-opacity:1;stroke:#000000;stroke-opacity:1"
         sodipodi:type="arc" />
      <path
         inkscape:connector-curvature="0"
         id="path3817"
         d="m 289.47642,532.8386 c 2.61338,8.05192 3.29343,20.82679 -7.69492,22.34493 -7.19004,3.73543 -15.25139,2.20245 -23.06976,2.48965 -9.45427,0.33608 -7.19882,15.42711 -17.92172,15.07316 -7.4965,2.49157 -15.50911,2.27177 -23.39002,2.09026 -7.16754,0.31794 -15.45179,2.2709 -20.25109,7.60768 -3.27309,4.38395 -4.27779,9.57044 -7.01212,14.07356"
         style="fill:none;stroke:#429041;stroke-width:1.27358496px;stroke-linecap:butt;stroke-linejoin:miter;stroke-opacity:1" />
      <path
         inkscape:connector-curvature="0"
         id="path3806"
         d="m 121,624.36218 c -4.36634,-6.34353 -3.16401,-17.84959 6.34156,-17.92839 8.9174,-0.54412 14.00109,-7.81009 18.38092,-14.62909 5.26557,-8.4405 15.5884,-9.43777 24.58721,-9.43616 8.88271,1.51765 16.93465,-4.09692 25.80453,-1.85244 9.70408,1.86778 11.99049,13.56887 19.92223,18.10383 4.01797,6.89509 8.12352,13.68002 14.97038,18.27608 6.14646,5.7032 12.30112,11.2491 18.44643,16.9202 3.76592,6.10536 13.89673,6.82785 13.93278,15.21995 -1.76187,8.21968 -13.39576,7.78395 -20.18936,9.34899 -8.511,0.0354 -16.94131,1.23821 -25.20958,2.99061 -10.42958,1.7241 -20.94617,0.50089 -31.43061,1.1229 -8.29289,-1.25716 -16.94027,-2.05899 -23.75604,-7.73489 -6.79702,-4.61467 -15.24957,-6.83171 -20.74984,-13.19174 C 134.49004,636.51685 127.75103,630.38904 121,624.36218 z"
         style="fill:#14652a;fill-opacity:1;stroke:#000000;stroke-width:1px;stroke-linecap:butt;stroke-linejoin:miter;stroke-opacity:1" />
      <path
         inkscape:connector-curvature="0"
         id="path3819"
         d="m 249.35849,564.67822 c 10.8333,1.96404 21.7236,-1.02104 32.60209,0.28787 7.95508,5.25723 5.25148,16.93789 12.6984,22.67563 4.49127,6.09847 10.73956,10.02251 18.51146,8.24438 6.52078,-1.0197 9.21504,0.41931 10.69277,6.99966"
         style="fill:none;stroke:#429041;stroke-width:1.27358496px;stroke-linecap:butt;stroke-linejoin:miter;stroke-opacity:1" />
      <path
         inkscape:connector-curvature="0"
         id="path3808"
         d="m 235,624.36218 c 13.30671,1.75253 26.84952,2.10537 39.59139,-2.53282 12.07425,-3.25013 24.36782,-7.70328 32.51957,-17.71166 8.73648,-11.56599 23.48445,-7.06081 35.3475,-11.44642 12.08359,-4.59032 25.77553,-10.16359 38.23222,-3.25077 9.03587,5.48202 22.44281,11.12954 19.83332,24.02731 0.41212,15.9442 -19.74979,17.38914 -29.21363,25.98416 -17.1607,7.93293 -34.98876,15.75616 -54.1106,16.9302 -16.73326,0 -33.46651,0 -50.19977,0 C 256.11112,653.83685 247.32769,645.74757 237.44223,641.44 234.56807,636.056 245.03147,625.78121 235,624.36218 z"
         style="fill:#14652a;fill-opacity:1;stroke:#000000;stroke-width:1px;stroke-linecap:butt;stroke-linejoin:miter;stroke-opacity:1" />
    </g>
    <g
       id="g3842"
       transform="translate(87.681241,-13.435029)">
      <path
         inkscape:connector-curvature="0"
         id="path3832"
         d="m 135.7645,889.02052 -26.16295,-161.92746 23.33452,-43.13351 26.87006,25.45584 0,171.11984 z"
         style="fill:#d7b534;fill-opacity:1;stroke:#000000;stroke-width:1px;stroke-linecap:butt;stroke-linejoin:miter;stroke-opacity:1" />
      <path
         inkscape:connector-curvature="0"
         id="path3834"
         d="m 183.84776,874.17127 -6.36396,-165.46298 20.5061,-37.47666 27.57716,31.8198 -7.07106,162.63456 z"
         style="fill:#d7b534;fill-opacity:1;stroke:#000000;stroke-width:1px;stroke-linecap:butt;stroke-linejoin:miter;stroke-opacity:1" />
      <path
         inkscape:connector-curvature="0"
         id="path3836"
         d="M 121.62237,896.09158 93.338095,733.45702 58.689863,708.70829 43.133514,752.54891 106.77312,903.16265 z"
         style="fill:#d7b534;fill-opacity:1;stroke:#000000;stroke-width:1px;stroke-linecap:butt;stroke-linejoin:miter;stroke-opacity:1" />
      <path
         inkscape:connector-curvature="0"
         id="path3838"
         d="m 37.476659,786.49003 193.040151,-70.71068 0,18.38478 -183.847762,66.46804 -12.727922,-13.43503 z"
         style="fill:#d7b534;fill-opacity:1;stroke:#000000;stroke-width:1px;stroke-linecap:butt;stroke-linejoin:miter;stroke-opacity:1" />
      <path
         inkscape:connector-curvature="0"
         id="path3840"
         d="M 75.660426,861.44335 235.46656,806.99613 231.93102,825.38091 81.31728,875.58549 z"
         style="fill:#d7b534;fill-opacity:1;stroke:#000000;stroke-width:1px;stroke-linecap:butt;stroke-linejoin:miter;stroke-opacity:1" />
    </g>
    <g
       id="g5360"
       transform="translate(14.849242,-48.083261)">
      <path
         inkscape:connector-curvature="0"
         id="path5354"
         d="m 599.34375,440.80278 a 4.0731844,3.7349261 46.241455 0 0 -2.8125,1.28734 l -25.46875,31.00999 a 4.0731844,3.7349261 46.241455 0 0 2.53125,6.43827 l 105.375,24.70107 a 4.0731844,3.7349261 46.241455 0 0 3.90625,-5.50499 l -28.28125,-49.82767 a 4.0731844,3.7349261 46.241455 0 0 -3.25,-2.1881 l -51.625,-5.88339 a 4.0731844,3.7349261 46.241455 0 0 -0.375,-0.0325 z m 2.15625,8.03075 47.5,5.4319 22.96875,40.4607 -90.65625,-21.2371 20.1875,-24.6555 z"
         style="font-size:medium;font-style:normal;font-variant:normal;font-weight:normal;font-stretch:normal;text-indent:0;text-align:start;text-decoration:none;line-height:normal;letter-spacing:normal;word-spacing:normal;text-transform:none;direction:ltr;block-progression:tb;writing-mode:lr-tb;text-anchor:start;baseline-shift:baseline;color:#000000;fill:#b94040;fill-opacity:1;stroke:#000000;stroke-width:1;stroke-linejoin:round;stroke-miterlimit:4;stroke-opacity:1;stroke-dasharray:none;marker:none;visibility:visible;display:inline;overflow:visible;enable-background:accumulate;font-family:Sans;-inkscape-font-specification:Sans" />
      <path
         id="path5321"
         d="m 622.40625,396.5625 -52.46875,19.78125 0,34.875 75.65625,14.90625 35.1875,-36.40625 0,-27.96875 -58.375,-5.1875 z"
         style="fill:#c0ac68;fill-opacity:1;fill-rule:evenodd;stroke:#000000;stroke-opacity:1"
         inkscape:connector-curvature="0" />
      <path
         sodipodi:nodetypes="ccccc"
         inkscape:connector-curvature="0"
         id="path3851"
         d="m 453.96255,498.69757 144.95689,-66.46804 c 12.59012,-5.4701 25.06543,9.26975 18.38478,17.67767 l -132.93608,90.50967 c -14.2959,10.21303 -50.22151,-17.22097 -30.40559,-41.7193 z"
         style="fill:url(#linearGradient5366);fill-opacity:1;stroke:#000000;stroke-width:1px;stroke-linecap:butt;stroke-linejoin:miter;stroke-opacity:1" />
      <path
         transform="matrix(1.1042372,-0.61408926,0.72786979,0.93162296,-440.30593,333.6681)"
         d="m 489.3179,518.14301 c 0,9.56784 -3.95728,17.32411 -8.83884,17.32411 -4.88155,0 -8.83883,-7.75627 -8.83883,-17.32411 0,-9.56785 3.95728,-17.32412 8.83883,-17.32412 4.88156,0 8.83884,7.75627 8.83884,17.32412 z"
         sodipodi:ry="17.324116"
         sodipodi:rx="8.8388348"
         sodipodi:cy="518.14301"
         sodipodi:cx="480.47906"
         id="path3861"
         style="fill:#000000;fill-opacity:1;stroke:none"
         sodipodi:type="arc" />
    </g>
    <g
       id="g5438">
      <path
         d="m 511.24171,722.5718 42.94268,18.31001 114.78127,-135.44584 -21.41058,-2.89682 z"
         style="fill:#afafde;fill-opacity:1;fill-rule:evenodd;stroke:#000000;stroke-width:1;stroke-linecap:round;stroke-linejoin:round;stroke-miterlimit:4;stroke-opacity:1;stroke-dasharray:none"
         id="path5420"
         inkscape:connector-curvature="0" />
      <path
         d="m 511.24171,603.50419 0,119.06761 136.31337,-120.03265 0,-48.60831 z"
         style="fill:#353564;fill-opacity:1;fill-rule:evenodd;stroke:#000000;stroke-width:1;stroke-linecap:round;stroke-linejoin:round;stroke-miterlimit:4;stroke-opacity:1;stroke-dasharray:none"
         id="path5422"
         inkscape:connector-curvature="0" />
      <path
         d="m 647.55508,553.93084 21.41058,1.19638 0,50.30875 -21.41058,-2.89682 z"
         style="fill:#e9e9ff;fill-opacity:1;fill-rule:evenodd;stroke:#000000;stroke-width:1;stroke-linecap:round;stroke-linejoin:round;stroke-miterlimit:4;stroke-opacity:1;stroke-dasharray:none"
         id="path5424"
         inkscape:connector-curvature="0" />
      <path
         d="m 511.24171,603.50419 42.94268,7.56201 114.78127,-55.93898 -21.41058,-1.19638 z"
         style="fill:#4d4d9f;fill-opacity:1;fill-rule:evenodd;stroke:#000000;stroke-width:1;stroke-linecap:round;stroke-linejoin:round;stroke-miterlimit:4;stroke-opacity:1;stroke-dasharray:none"
         id="path5426"
         inkscape:connector-curvature="0" />
      <path
         d="m 554.18439,611.0662 0,129.81561 114.78127,-135.44584 0,-50.30875 z"
         style="fill:#993b3b;fill-opacity:1;fill-rule:evenodd;stroke:#000000;stroke-width:1;stroke-linecap:round;stroke-linejoin:round;stroke-miterlimit:4;stroke-opacity:1;stroke-dasharray:none"
         id="path5428"
         inkscape:connector-curvature="0" />
      <path
         d="m 511.24171,603.50419 42.94268,7.56201 0,129.81561 -42.94268,-18.31001 z"
         style="fill:#683737;fill-opacity:1;fill-rule:evenodd;stroke:#000000;stroke-width:1;stroke-linecap:round;stroke-linejoin:round;stroke-miterlimit:4;stroke-opacity:1;stroke-dasharray:none"
         id="path5430"
         inkscape:connector-curvature="0" />
      <path
         d="m 500.6316,613.68686 53.64325,10.91302 119.64496,-69.6228 -20.60521,-0.9459 z"
         style="fill:#afafde;fill-opacity:1;fill-rule:evenodd;stroke:#000000;stroke-width:1;stroke-linecap:round;stroke-linejoin:round;stroke-miterlimit:4;stroke-opacity:1;stroke-dasharray:none"
         id="path5400"
         inkscape:connector-curvature="0" />
      <path
         d="m 500.6316,588.40712 0,25.27974 152.683,-59.65568 0,-7.76258 z"
         style="fill:#353564;fill-opacity:1;fill-rule:evenodd;stroke:#000000;stroke-width:1;stroke-linecap:round;stroke-linejoin:round;stroke-miterlimit:4;stroke-opacity:1;stroke-dasharray:none"
         id="path5402"
         inkscape:connector-curvature="0" />
      <path
         d="m 653.3146,546.2686 20.60521,0.66816 0,8.04032 -20.60521,-0.9459 z"
         style="fill:#e9e9ff;fill-opacity:1;fill-rule:evenodd;stroke:#000000;stroke-width:1;stroke-linecap:round;stroke-linejoin:round;stroke-miterlimit:4;stroke-opacity:1;stroke-dasharray:none"
         id="path5404"
         inkscape:connector-curvature="0" />
      <path
         d="m 500.6316,588.40712 53.64325,7.70854 119.64496,-49.1789 -20.60521,-0.66816 z"
         style="fill:#767676;fill-opacity:1;fill-rule:evenodd;stroke:#000000;stroke-width:1;stroke-linecap:round;stroke-linejoin:round;stroke-miterlimit:4;stroke-opacity:1;stroke-dasharray:none"
         id="path5406"
         inkscape:connector-curvature="0" />
      <path
         d="m 554.27485,596.11566 0,28.48422 119.64496,-69.6228 0,-8.04032 z"
         style="fill:#a9a9a9;fill-opacity:1;fill-rule:evenodd;stroke:#000000;stroke-width:1;stroke-linecap:round;stroke-linejoin:round;stroke-miterlimit:4;stroke-opacity:1;stroke-dasharray:none"
         id="path5408"
         inkscape:connector-curvature="0" />
      <path
         d="m 500.6316,588.40712 53.64325,7.70854 0,28.48422 -53.64325,-10.91302 z"
         style="fill:#626262;fill-opacity:1;fill-rule:evenodd;stroke:#000000;stroke-width:1;stroke-linecap:round;stroke-linejoin:round;stroke-miterlimit:4;stroke-opacity:1;stroke-dasharray:none"
         id="path5410"
         inkscape:connector-curvature="0" />
    </g>
  </g>
</svg>
