<?xml version="1.0" encoding="UTF-8" standalone="no"?>
<!-- Created with Inkscape (http://www.inkscape.org/) -->

<svg
   xmlns:dc="http://purl.org/dc/elements/1.1/"
   xmlns:cc="http://creativecommons.org/ns#"
   xmlns:rdf="http://www.w3.org/1999/02/22-rdf-syntax-ns#"
   xmlns:svg="http://www.w3.org/2000/svg"
   xmlns="http://www.w3.org/2000/svg"
   xmlns:sodipodi="http://sodipodi.sourceforge.net/DTD/sodipodi-0.dtd"
   xmlns:inkscape="http://www.inkscape.org/namespaces/inkscape"
   width="400"
   height="400"
   id="svg4269"
   version="1.1"
   inkscape:version="0.48.1 r9760"
   inkscape:export-filename="/home/peter/projects/pyweek15/AllAboutMonstrs/AllAboutMonstrs/data/tessellated_chromographs/Ferociraptor.png"
   inkscape:export-xdpi="90"
   inkscape:export-ydpi="90"
   sodipodi:docname="New document 7">
  <defs
     id="defs4271" />
  <sodipodi:namedview
     id="base"
     pagecolor="#ffffff"
     bordercolor="#666666"
     borderopacity="1.0"
     inkscape:pageopacity="0.0"
     inkscape:pageshadow="2"
     inkscape:zoom="1.4"
     inkscape:cx="195.58105"
     inkscape:cy="107.76411"
     inkscape:document-units="px"
     inkscape:current-layer="layer1"
     showgrid="false"
     inkscape:window-width="733"
     inkscape:window-height="785"
     inkscape:window-x="233"
     inkscape:window-y="88"
     inkscape:window-maximized="0" />
  <metadata
     id="metadata4274">
    <rdf:RDF>
      <cc:Work
         rdf:about="">
        <dc:format>image/svg+xml</dc:format>
        <dc:type
           rdf:resource="http://purl.org/dc/dcmitype/StillImage" />
        <dc:title></dc:title>
      </cc:Work>
    </rdf:RDF>
  </metadata>
  <g
     inkscape:label="Layer 1"
     inkscape:groupmode="layer"
     id="layer1"
     transform="translate(0,-652.36218)">
    <path
       style="color:#000000;fill:#87ceeb;fill-opacity:1;fill-rule:nonzero;stroke:#000000;stroke-width:1px;stroke-linecap:butt;stroke-linejoin:miter;stroke-miterlimit:4;stroke-opacity:1;stroke-dasharray:none;stroke-dashoffset:0;marker:none;visibility:visible;display:inline;overflow:visible;enable-background:accumulate"
       d="M 155,850.93361 180.71428,874.50504 210,860.93361 l 16.42857,10 -7.14286,15.71429 -9.28571,5.71428 15.71428,-0.71428 8.57143,-17.85715 1.42857,16.42858 -5.71428,9.28571 12.14285,-5 0,-23.57143 7.14286,10 -0.71428,12.14286 8.57142,-18.57143 c -7.93701,-12.53918 -18.04807,-22.9043 -33.57142,-27.85714 l -27.85715,0.71428 -27.14285,-10.71428"
       id="path4791"
       inkscape:connector-curvature="0"
       sodipodi:nodetypes="cccccccccccccccccc" />
    <path
       style="color:#000000;fill:#778899;fill-opacity:1;fill-rule:nonzero;stroke:#000000;stroke-width:1px;stroke-linecap:butt;stroke-linejoin:miter;stroke-miterlimit:4;stroke-opacity:1;stroke-dasharray:none;stroke-dashoffset:0;marker:none;visibility:visible;display:inline;overflow:visible;enable-background:accumulate"
       d="m 143.57143,256.42857 8.57143,12.85714 L 100,327.14286 c -4.724173,7.85714 -8.828534,16.42857 -2.142859,24.28572 4.736289,16.45418 13.239329,31.99875 23.571429,42.85713 l 18.57143,5 6.42857,15 -42.14286,-7.14285 -44.28571,-65 c -5.363858,-27.98291 4.775059,-40.46304 7.857143,-60 z"
       id="path4799"
       inkscape:connector-curvature="0"
       transform="translate(0,652.36218)"
       sodipodi:nodetypes="ccccccccccc" />
    <path
       inkscape:connector-curvature="0"
       id="path4805"
       d="m 253.57143,788.79075 2.85714,17.85715 2.85714,-16.42857"
       style="color:#000000;fill:#ffffff;fill-opacity:1;fill-rule:nonzero;stroke:#000000;stroke-width:1px;stroke-linecap:butt;stroke-linejoin:miter;stroke-miterlimit:4;stroke-opacity:1;stroke-dasharray:none;stroke-dashoffset:0;marker:none;visibility:visible;display:inline;overflow:visible;enable-background:accumulate" />
    <path
       inkscape:connector-curvature="0"
       id="path4807"
       d="m 271.42858,787.36218 2.85714,17.85715 2.85714,-16.42857"
       style="color:#000000;fill:#ffffff;fill-opacity:1;fill-rule:nonzero;stroke:#000000;stroke-width:1px;stroke-linecap:butt;stroke-linejoin:miter;stroke-miterlimit:4;stroke-opacity:1;stroke-dasharray:none;stroke-dashoffset:0;marker:none;visibility:visible;display:inline;overflow:visible;enable-background:accumulate" />
    <path
       style="color:#000000;fill:#ffffff;fill-opacity:1;fill-rule:nonzero;stroke:#000000;stroke-width:1px;stroke-linecap:butt;stroke-linejoin:miter;stroke-miterlimit:4;stroke-opacity:1;stroke-dasharray:none;stroke-dashoffset:0;marker:none;visibility:visible;display:inline;overflow:visible;enable-background:accumulate"
       d="m 280.00001,785.93361 2.85714,17.85715 2.85714,-16.42857"
       id="path4809"
       inkscape:connector-curvature="0" />
    <path
       inkscape:connector-curvature="0"
       id="path4811"
       d="m 290.00001,785.21932 2.85714,17.85715 2.85714,-16.42857"
       style="color:#000000;fill:#ffffff;fill-opacity:1;fill-rule:nonzero;stroke:#000000;stroke-width:1px;stroke-linecap:butt;stroke-linejoin:miter;stroke-miterlimit:4;stroke-opacity:1;stroke-dasharray:none;stroke-dashoffset:0;marker:none;visibility:visible;display:inline;overflow:visible;enable-background:accumulate" />
    <path
       style="color:#000000;fill:#ffffff;fill-opacity:1;fill-rule:nonzero;stroke:#000000;stroke-width:1px;stroke-linecap:butt;stroke-linejoin:miter;stroke-miterlimit:4;stroke-opacity:1;stroke-dasharray:none;stroke-dashoffset:0;marker:none;visibility:visible;display:inline;overflow:visible;enable-background:accumulate"
       d="m 261.42858,790.21932 2.85714,17.85715 2.85714,-16.42857"
       id="path4803"
       inkscape:connector-curvature="0" />
    <path
       style="color:#000000;fill:#87ceeb;fill-opacity:1;fill-rule:nonzero;stroke:#000000;stroke-width:1px;stroke-linecap:butt;stroke-linejoin:miter;stroke-miterlimit:4;stroke-opacity:1;stroke-dasharray:none;stroke-dashoffset:0;marker:none;visibility:visible;display:inline;overflow:visible;enable-background:accumulate"
       d="m 204.28571,106.42857 102.85715,17.14286 c 9.91038,5 6.62912,10 7.85714,15 l -92.14286,12.14286 75,10.71428 L 218.57143,170 c -14.14461,1.79899 -29.04342,-0.92717 -41.42857,11.42857 L 170,209.28571 145.71429,257.85714 C 132.4511,280.12647 111.91849,276.95279 95,286.42857 L 42.857143,273.57143 6.4285714,236.42857 -13.571429,212.14286 -12.142857,170 40.714286,204.28571 c 19.037934,3.94109 37.841192,5.30074 55,-11.42857 l 37.142854,-37.14285 c 7.2312,-17.80329 15.87493,-27.13136 25,-33.57143 14.62664,-9.48582 29.90165,-15.72982 46.42857,-15.71429 z"
       id="path4789"
       inkscape:connector-curvature="0"
       transform="translate(0,652.36218)"
       sodipodi:nodetypes="ccccccccccccccccccc" />
    <path
       inkscape:connector-curvature="0"
       id="path4793"
       d="m 142.85715,874.50504 c 6.72474,12.47386 15.18074,20.61958 25.71428,23.57143 l 29.28572,-13.57143 c 5.99008,0.76388 12.26562,0.10046 16.42857,10 l -7.14286,15.71429 -9.28571,5.71428 15.71428,-0.71428 8.57143,-17.85715 1.42857,16.42858 -5.71428,9.28571 12.14285,-5 0,-23.57143 7.14286,10 -0.71428,12.14286 L 245,898.07647 c -9.139,-10.51659 -15.48527,-22.70883 -33.57142,-27.85714 l -27.85715,0.71428 c -7.71548,-2.68333 -9.13773,-1.17119 -27.14285,-10.71428"
       style="color:#000000;fill:#87ceeb;fill-opacity:1;fill-rule:nonzero;stroke:#000000;stroke-width:1px;stroke-linecap:butt;stroke-linejoin:miter;stroke-miterlimit:4;stroke-opacity:1;stroke-dasharray:none;stroke-dashoffset:0;marker:none;visibility:visible;display:inline;overflow:visible;enable-background:accumulate"
       sodipodi:nodetypes="cccccccccccccccccc" />
    <path
       style="color:#000000;fill:#87ceeb;fill-opacity:1;fill-rule:nonzero;stroke:#000000;stroke-width:1px;stroke-linecap:butt;stroke-linejoin:miter;stroke-miterlimit:4;stroke-opacity:1;stroke-dasharray:none;stroke-dashoffset:0;marker:none;visibility:visible;display:inline;overflow:visible;enable-background:accumulate"
       d="m 107.85714,256.42857 c 25.18731,7.524 52.61306,14.91632 46.42857,24.28572 -3.97029,19.43426 -10.75029,24.81996 -16.42857,35.71428 21.02809,4.45359 41.71813,9.7523 66.42857,5 l 5,-12.85714 c 21.15873,-10.68254 28.91444,-7.96205 41.42858,-10 12.58955,11.18626 7.58385,19.85891 7.85714,29.28571 -4.10831,-6.36788 -4.03063,-16.92175 -15,-16.42857 -23.22336,6.71362 -18.72279,7.02605 -29.28572,25.71429 l 11.42858,0.71428 c 7.8568,6.04769 4.79749,14.2786 3.57143,22.14286 -1.61052,-10.16262 -6.04521,-16.93623 -17.14286,-15.71429 l 8.57143,15.00001 -12.14286,12.14285 c -0.88471,-6.34687 4.35824,-13.91927 -5,-18.57143 l -12.14286,-10 c -2.94344,0.58329 -7.30587,6.84251 -12.14286,15.00001 l -0.71428,-18.57144 c -22.38095,0.4848 -44.76191,6.61039 -67.14286,-1.42857 -2.75836,-7.61094 1.12763,-17.87962 7.85714,-29.28571 -18.71666,11.14764 -40.570312,7.65599 -64.999996,-7.85714 C 42.200396,285.19795 42.861266,282.09135 40.714286,260"
       id="path4797"
       inkscape:connector-curvature="0"
       transform="translate(0,652.36218)"
       sodipodi:nodetypes="cccccccccccccccccccccc" />
    <path
       sodipodi:type="arc"
       style="fill:#ffff00;fill-opacity:1;stroke:none"
       id="path4801"
       sodipodi:cx="216.07143"
       sodipodi:cy="123.57143"
       sodipodi:rx="10.357142"
       sodipodi:ry="6.4285712"
       d="m 226.42857,123.57143 a 10.357142,6.4285712 0 1 1 -20.71429,0 10.357142,6.4285712 0 1 1 20.71429,0 z"
       transform="translate(0,652.36218)" />
  </g>
</svg>
